<?xml version="1.0" standalone="no"?>
<!DOCTYPE svg PUBLIC "-//W3C//DTD SVG 1.1//EN" "http://www.w3.org/Graphics/SVG/1.1/DTD/svg11.dtd">
<svg width="100%" height="100%" viewBox="0 0 298 329" version="1.1" xmlns="http://www.w3.org/2000/svg" xmlns:xlink="http://www.w3.org/1999/xlink" xml:space="preserve" style="fill-rule:evenodd;clip-rule:evenodd;stroke-linejoin:round;stroke-miterlimit:1.41421;">
    <g transform="matrix(1,0,0,1,-656,-37)">
        <g id="Layer2">
            <g transform="matrix(1,0,0,1,687.223,46.8006)">
                <path d="M228.674,61.476L202.424,61.476C202.476,61.254 202.51,61.026 202.51,60.788L202.51,7.763C202.51,6.095 201.167,4.743 199.51,4.743C198.927,4.743 198.388,4.917 197.927,5.207C198.865,5.751 199.51,6.805 199.51,8.03L199.51,64.477L224.674,64.477C231.302,64.477 236.674,69.85 236.674,76.477L236.674,176.477C236.674,179.498 235.55,182.25 233.707,184.36C237.817,182.456 240.674,178.305 240.674,173.477L240.674,73.477C240.674,66.849 235.302,61.476 228.674,61.476Z" style="fill:rgb(191,191,191);fill-rule:nonzero;"/>
            </g>
            <g transform="matrix(1,0,0,1,687.223,46.8006)">
                <path d="M47.01,64.476L47.01,61.476L24.674,61.476C21.068,61.476 17.841,63.075 15.641,65.594C17.173,64.884 18.874,64.476 20.674,64.476L47.01,64.476Z" style="fill:rgb(191,191,191);fill-rule:nonzero;"/>
            </g>
            <g transform="matrix(1,0,0,1,687.223,46.8006)">
                <path d="M236.674,76.476C236.674,69.849 231.302,64.476 224.674,64.476L199.51,64.476L199.51,8.029C199.51,6.804 198.865,5.751 197.927,5.206C197.503,4.96 197.026,4.808 196.51,4.808C194.853,4.808 193.51,6.25 193.51,8.029L193.51,64.476L53.01,64.476L53.01,8.029C53.01,6.804 52.365,5.751 51.427,5.206C51.003,4.96 50.526,4.808 50.01,4.808C48.353,4.808 47.01,6.25 47.01,8.029L47.01,64.476L20.674,64.476C18.874,64.476 17.173,64.883 15.641,65.594C11.532,67.498 8.674,71.649 8.674,76.476L8.674,176.476C8.674,183.103 14.047,188.476 20.674,188.476L224.674,188.476C228.281,188.476 231.508,186.877 233.707,184.359C235.55,182.25 236.674,179.497 236.674,176.476L236.674,76.476Z" style="fill:rgb(241,240,240);fill-rule:nonzero;"/>
            </g>
            <g transform="matrix(1,0,0,1,687.223,46.8006)">
                <path d="M53.01,8.029L53.01,64.476L193.51,64.476L193.51,61.476L55.924,61.476C55.976,61.254 56.01,61.026 56.01,60.788L56.01,7.763C56.01,6.095 54.667,4.743 53.01,4.743C52.427,4.743 51.888,4.917 51.427,5.207C52.366,5.751 53.01,6.804 53.01,8.029Z" style="fill:rgb(191,191,191);fill-rule:nonzero;"/>
            </g>
            <g transform="matrix(1,0,0,1,681.476,119.054)">
                <g transform="matrix(0.334183,0,0,0.334183,99.7984,88.2697)">
                    <g>
                        <path d="M142.606,337.375C131.106,328.375 115.527,324.901 111.106,323.625C108.606,322.875 95.606,320.625 95.606,320.625C95.606,318.375 95.606,56.833 95.606,53.833C95.606,47.356 91.546,43.892 88.023,42.208L88.023,51.614C89.739,52.881 90.856,54.912 90.856,57.208C90.856,61.051 87.741,64.166 83.898,64.166C80.054,64.166 76.94,61.051 76.94,57.208C76.94,54.949 78.021,52.947 79.689,51.676L79.689,41.465C76.153,42.649 71.273,46.049 71.273,55.83C71.273,58.163 70.607,319.833 70.607,319.833C65.718,320.727 51.607,322.833 44.607,325.166C27.607,330.334 19.943,340.501 19.943,340.501C9.94,357 15.856,370.5 19.607,378.5C38.273,416.334 77.94,418.166 83.94,418.166C127.94,418.166 147.856,376.125 147.856,376.125C158.856,351 149.356,343.5 142.606,337.375ZM137.273,362.167C133.606,363.834 111.939,371.501 86.273,372.501C82.606,372.501 56.273,373.167 30.606,363.167C28.273,361.834 20.273,359.501 27.606,354.501C46.273,341.834 79.606,340.501 79.606,340.501C79.606,340.501 118.939,341.167 137.273,354.167C137.273,354.167 146.606,358.834 137.273,362.167Z" style="fill:rgb(193,193,192);fill-rule:nonzero;"/>
                        <rect x="79.689" y="13.833" width="8.334" height="45" style="fill:rgb(191,191,191);fill-rule:nonzero;"/>
                        <rect x="50.606" y="359.834" width="62.667" height="2" style="fill:rgb(173,109,39);"/>
                        <rect x="67.939" y="350.168" width="30" height="2" style="fill:rgb(173,109,39);"/>
                    </g>
                    <path d="M137.273,354.167C118.939,341.167 79.606,340.501 79.606,340.501C79.606,340.501 46.273,341.834 27.606,354.501C20.273,359.501 28.273,361.834 30.606,363.167C56.273,373.167 82.606,372.501 86.273,372.501C111.939,371.501 133.606,363.834 137.273,362.167C146.606,358.834 137.273,354.167 137.273,354.167ZM67.939,350.168L97.939,350.168L97.939,352.168L67.939,352.168L67.939,350.168ZM113.273,361.834L50.606,361.834L50.606,359.834L113.273,359.834L113.273,361.834Z" style="fill:rgb(198,129,45);fill-rule:nonzero;"/>
                </g>
                <g transform="matrix(0.312155,0,0,0.312155,37.9467,91.1255)">
                    <path d="M134.38,354.811C133.13,341.311 128.38,319.311 125.63,311.061C117.13,282.311 90.63,279.561 90.63,279.561C90.63,277.561 91.13,258.311 91.13,255.061C91.13,251.811 91.38,223.311 91.63,219.811C92.38,200.061 92.38,183.561 92.38,183.561L93.13,143.311C93.13,143.311 93.13,96.311 93.13,91.561C93.13,86.811 93.13,45.9 93.13,45.9C93.13,35.085 84.683,31.401 79.172,30.167L79.172,41.643C81.33,43.076 82.755,45.526 82.755,48.31C82.755,52.728 79.172,56.31 74.755,56.31C70.338,56.31 66.755,52.728 66.755,48.31C66.755,45.316 68.403,42.71 70.838,41.339L70.838,34.687L70.838,29.823C65.36,30.618 55.88,33.746 55.88,45.9L55.88,89.311C55.88,94.061 56.38,127.811 56.38,130.561C56.38,133.311 57.13,178.561 57.38,182.061C57.63,185.561 58.38,220.811 58.38,226.061C58.38,231.311 58.38,275.811 58.38,278.811C33.63,283.061 24.63,304.061 22.88,310.311C17.006,328.061 14.88,342.311 14.88,342.311C14.88,342.311 12.13,355.061 12.13,382.311C12.13,385.811 12.13,420.561 12.13,425.311C12.13,437.353 36.989,436.858 36.988,436.858C72.196,437.032 75.721,437.297 88.579,437.362C100.752,436.924 121.339,436.394 124.339,435.894C133.339,433.894 135.88,429.061 135.88,426.061C135.88,423.061 135.88,386.811 135.88,382.811C135.88,378.811 134.88,359.311 134.38,354.811ZM40.63,412.061C40.63,414.311 40.38,423.061 33.38,423.061C31.88,423.061 27.38,421.311 27.38,413.061C27.38,413.061 27.38,349.811 27.38,347.561C27.38,336.311 34.88,336.811 34.88,336.811C36.13,336.811 40.63,337.311 40.63,346.061C40.63,349.061 40.63,409.811 40.63,412.061ZM67.63,412.061C67.63,414.311 67.38,423.061 60.38,423.061C58.88,423.061 54.38,421.311 54.38,413.061C54.38,413.061 54.38,349.811 54.38,347.561C54.38,336.311 61.88,336.811 61.88,336.811C63.13,336.811 67.63,337.311 67.63,346.061C67.63,349.061 67.63,409.811 67.63,412.061ZM94.654,412.061C94.654,414.311 94.404,423.061 87.404,423.061C85.904,423.061 81.404,421.311 81.404,413.061C81.404,413.061 81.404,349.811 81.404,347.561C81.404,336.311 88.904,336.811 88.904,336.811C90.154,336.811 94.654,337.311 94.654,346.061C94.654,349.061 94.654,409.811 94.654,412.061ZM120.815,412.061C120.815,414.311 120.565,423.061 113.565,423.061C112.065,423.061 107.565,421.311 107.565,413.061C107.565,413.061 107.565,349.811 107.565,347.561C107.565,336.311 115.065,336.811 115.065,336.811C116.315,336.811 120.815,337.311 120.815,346.061C120.815,349.061 120.815,409.811 120.815,412.061Z" style="fill:rgb(68,65,63);fill-rule:nonzero;"/>
                    <path d="M34.88,336.811C34.88,336.811 27.38,336.311 27.38,347.561C27.38,349.811 27.38,413.061 27.38,413.061C27.38,421.311 31.88,423.061 33.38,423.061C40.38,423.061 40.63,414.311 40.63,412.061C40.63,409.811 40.63,349.061 40.63,346.061C40.63,337.311 36.13,336.811 34.88,336.811Z" style="fill:rgb(241,67,54);fill-rule:nonzero;"/>
                    <path d="M61.88,336.811C61.88,336.811 54.38,336.311 54.38,347.561C54.38,349.811 54.38,413.061 54.38,413.061C54.38,421.311 58.88,423.061 60.38,423.061C67.38,423.061 67.63,414.311 67.63,412.061C67.63,409.811 67.63,349.061 67.63,346.061C67.63,337.311 63.13,336.811 61.88,336.811Z" style="fill:rgb(241,67,54);fill-rule:nonzero;"/>
                    <path d="M88.904,336.811C88.904,336.811 81.404,336.311 81.404,347.561C81.404,349.811 81.404,413.061 81.404,413.061C81.404,421.311 85.904,423.061 87.404,423.061C94.404,423.061 94.654,414.311 94.654,412.061C94.654,409.811 94.654,349.061 94.654,346.061C94.654,337.311 90.154,336.811 88.904,336.811Z" style="fill:rgb(241,67,54);fill-rule:nonzero;"/>
                    <path d="M115.065,336.811C115.065,336.811 107.565,336.311 107.565,347.561C107.565,349.811 107.565,413.061 107.565,413.061C107.565,421.311 112.065,423.061 113.565,423.061C120.565,423.061 120.815,414.311 120.815,412.061C120.815,409.811 120.815,349.061 120.815,346.061C120.815,337.311 116.315,336.811 115.065,336.811Z" style="fill:rgb(241,67,54);fill-rule:nonzero;"/>
                    <path d="M79.172,52.056L70.838,52.056L70.838,44.899L70.838,41.34C68.403,42.712 66.755,45.317 66.755,48.311C66.755,52.729 70.338,56.311 74.755,56.311C79.172,56.311 82.755,52.729 82.755,48.311C82.755,45.526 81.33,43.077 79.172,41.644L79.172,52.056Z" style="fill:white;fill-rule:nonzero;"/>
                    <rect x="70.838" y="7.056" width="8.334" height="45" style="fill:rgb(191,191,191);fill-rule:nonzero;"/>
                    <rect x="70.838" y="7.056" width="8.334" height="45" style="fill:rgb(191,191,191);fill-rule:nonzero;"/>
                </g>
                <path d="M79.689,58.833L79.689,51.676C78.021,52.947 76.94,54.949 76.94,57.208C76.94,61.051 80.054,64.166 83.898,64.166C87.741,64.166 90.856,61.051 90.856,57.208C90.856,54.912 89.739,52.881 88.023,51.614L88.023,58.834L79.689,58.834L79.689,58.833Z" style="fill:rgb(241,240,240);fill-rule:nonzero;"/>
                <g transform="matrix(0.307655,0,0,0.307655,170.778,129.818)">
                    <g transform="matrix(1,0,0,1,33.548,-125.221)">
                        <path d="M102.74,383C102,354.125 91.74,334.125 86.99,326.75C79.99,315.25 66.49,308.083 66.49,308.083L66.501,91.417C66.501,89.667 66.74,87.25 66.74,86.25C66.74,85.25 68.99,76.25 69.49,73.75C69.99,71.25 74.24,52 74.49,48.75C75.856,38.88 65.905,35.965 60,35.102L60,42.231C62.25,43.647 63.75,46.146 63.75,49C63.75,53.418 60.169,57 55.75,57C51.331,57 47.75,53.418 47.75,49C47.75,46.076 49.324,43.525 51.666,42.13L51.666,34.993C47.809,35.593 42.266,37.46 39.49,43.125C37.083,47.333 39.751,59.542 39.751,59.542C39.751,59.542 45.415,83.962 45.871,85.75C46.34,87.548 46.74,89.375 46.74,91.625C46.74,93.875 46.74,304.625 46.74,308.125C14.99,323.875 10.74,377.625 10.24,382.625C9.74,387.625 7.617,426.875 7.617,431.125C7.617,439.625 19.99,441.625 28.74,442.875C34.24,443.875 51.99,444.375 57.24,444.375C70.49,444.625 90.24,442.375 90.24,442.375C105.604,440.625 105.604,429.875 105.604,429.875C105.604,426.875 102.905,387.504 102.74,383Z" style="fill:rgb(219,149,73);fill-rule:nonzero;"/>
                    </g>
                    <g transform="matrix(1,0,0,1,33.548,-125.221)">
                        <rect x="51.666" y="6.167" width="8.334" height="45" style="fill:rgb(191,191,191);fill-rule:nonzero;"/>
                    </g>
                </g>
                <g transform="matrix(1,0,0,1,-746.592,-120.249)">
                    <text x="774.78px" y="144.512px" style="font-family:Roboto Slab;font-size:16.667px;fill:rgb(35,31,32);">Poucos ingredientes em </text>
                    <text x="774.78px" y="161.179px" style="font-family:Roboto Slab;font-size:16.667px;fill:rgb(35,31,32);">casa? Tudo bem, daremos </text>
                    <text x="774.78px" y="177.845px" style="font-family:Roboto Slab;font-size:16.667px;fill:rgb(35,31,32);">um jeito nisso, diga-nos </text>
                    <text x="774.78px" y="194.512px" style="font-family:Roboto Slab;font-size:16.667px;fill:rgb(35,31,32);">o que você tem.</text>
                </g>
            </g>
        </g>
    </g>
</svg>
