<?xml version="1.0" standalone="no"?>
<!DOCTYPE svg PUBLIC "-//W3C//DTD SVG 1.1//EN" "http://www.w3.org/Graphics/SVG/1.1/DTD/svg11.dtd">
<svg width="100%" height="100%" viewBox="0 0 112 127" version="1.1" xmlns="http://www.w3.org/2000/svg" xmlns:xlink="http://www.w3.org/1999/xlink" xml:space="preserve" style="fill-rule:evenodd;clip-rule:evenodd;stroke-linejoin:round;stroke-miterlimit:1.41421;">
    <g transform="matrix(1,0,0,1,-830,-415)">
        <g transform="matrix(1,0,0,1,681.476,119.054)">
            <g id="Layer3">
                <g>
                    <g transform="matrix(1,0,0,1,164.515,322.589)">
                        <circle cx="39.522" cy="39.518" r="38.384" style="fill:rgb(210,46,47);"/>
                        <path d="M26.536,43.886C27.369,44.719 54.404,71.889 56.487,73.972C56.487,73.972 67.696,69.278 74.202,55.973C74.202,55.973 48.804,33.17 42.305,28.878" style="fill:rgb(178,32,51);fill-rule:nonzero;"/>
                        <path d="M31.417,39C34.084,39.333 37.917,39.333 38.75,37.5C39.583,35.667 40.917,31.667 37.25,31.667C33.583,31.667 32.417,31.833 31.75,33C31.083,34.167 31.417,39 31.417,39" style="fill:rgb(210,46,47);fill-rule:nonzero;"/>
                        <g transform="matrix(1,0,0,1,23.3164,60.5176)">
                            <text x="0px" y="0px" style="font-family:Cabin;font-size:70px;fill:rgb(230,230,230);">+</text>
                        </g>
                    </g>
                </g>
            </g>
        </g>
    </g>
</svg>
