<?xml version="1.0" standalone="no"?>
<!DOCTYPE svg PUBLIC "-//W3C//DTD SVG 1.1//EN" "http://www.w3.org/Graphics/SVG/1.1/DTD/svg11.dtd">
<svg width="100%" height="100%" viewBox="0 0 149 161" version="1.1" xmlns="http://www.w3.org/2000/svg" xmlns:xlink="http://www.w3.org/1999/xlink" xml:space="preserve" style="fill-rule:evenodd;clip-rule:evenodd;stroke-linejoin:round;stroke-miterlimit:1.41421;">
    <g transform="matrix(1,0,0,1,-479,-393)">
        <g transform="matrix(1,0,0,1,681.476,119.054)">
            <g id="Layer3">
                <g>
                    <g transform="matrix(1,0,0,1,-172.66,313.338)">
                        <circle cx="42.076" cy="42.015" r="38.384" style="fill:white;"/>
                        <path d="M29.091,46.43C29.924,47.263 56.866,74.472 58.95,76.555C58.95,76.555 70.676,71.715 76.89,58.38C76.89,58.38 51.46,35.551 44.96,31.259" style="fill:rgb(226,225,226);fill-rule:nonzero;"/>
                        <path d="M39.125,35.875C39.208,36.458 39.708,37.792 39.708,38.625C39.708,39.458 40.208,41.042 38.125,41.125C36.042,41.208 34.208,41.042 33.958,40.708C33.708,40.374 34.482,37.125 34.482,37.125L39.125,35.875" style="fill:white;fill-rule:nonzero;"/>
                        <g transform="matrix(1,0,0,1,25.941,62.899)">
                            <text x="0px" y="0px" style="font-family:Cabin;font-size:70px;font-weight:500;fill:rgb(241,67,54);">+</text>
                        </g>
                    </g>
                </g>
            </g>
        </g>
    </g>
</svg>
