<?xml version="1.0" standalone="no"?>
<!DOCTYPE svg PUBLIC "-//W3C//DTD SVG 1.1//EN" "http://www.w3.org/Graphics/SVG/1.1/DTD/svg11.dtd">
<svg width="100%" height="100%" viewBox="0 0 282 240" version="1.1" xmlns="http://www.w3.org/2000/svg" xmlns:xlink="http://www.w3.org/1999/xlink" xml:space="preserve" style="fill-rule:evenodd;clip-rule:evenodd;stroke-miterlimit:1.41421;">
    <g transform="matrix(1,0,0,1,-93,-47)">
        <g id="Layer1">
            <g transform="matrix(1,0,0,1,149.929,62.3581)">
                <circle cx="82.629" cy="81.052" r="74" style="fill:rgb(239,238,238);"/>
            </g>
            <g transform="matrix(0.995091,0,0,1,150.696,62.3581)">
                <path d="M82.265,7.052C124.366,7.402 156.115,39.96 156.115,80.802C156.115,121.644 122.941,155.052 82.1,155.052C82.342,106.797 82.508,32.52 82.265,7.052Z" style="fill:rgb(217,216,216);"/>
            </g>
            <g transform="matrix(1,0,0,1,149.929,62.3581)">
                <circle cx="82.628" cy="81.052" r="63.15" style="fill:none;stroke-width:4px;stroke:rgb(179,179,179);"/>
            </g>
            <g transform="matrix(1,0,0,1,194.001,150.067)">
                <text x="0px" y="0px" style="font-family:Arial;font-size:24px;fill:rgb(51,51,51);">Buscar</text>
            </g>
            <g transform="matrix(0.712928,0,0,0.671919,104.141,64.9163)">
                <path d="M38.416,105.567C39.666,104.317 51.166,94.567 51.166,90.567C51.166,88.567 50.666,76.567 50.416,73.817C50.166,71.067 48.166,20.567 47.916,17.817C47.916,17.817 47.728,12.004 47.728,10.754C47.728,7.754 46.54,6.316 44.165,6.316C41.415,6.316 40.915,8.816 40.915,10.566C40.915,12.316 40.915,65.816 40.915,66.816C40.915,69.066 39.415,69.566 38.415,69.566C37.415,69.566 35.665,68.566 35.665,66.816C35.665,65.066 35.665,12.066 35.665,10.816C35.665,7.316 33.915,6.316 32.915,6.316C30.415,6.316 29.665,9.066 29.665,11.066C29.665,13.066 29.665,65.566 29.665,66.566C29.665,69.066 28.165,69.816 27.165,69.816C25.415,69.816 24.665,68.066 24.665,66.566C24.665,65.066 24.665,11.816 24.665,10.316C24.665,7.316 22.915,6.316 21.915,6.316C19.415,6.316 19.165,9.566 19.165,10.816C19.165,12.066 18.665,64.816 18.665,66.316C18.665,68.816 17.165,69.566 16.165,69.566C15.165,69.566 14.165,68.816 14.165,66.066C14.165,64.316 14.165,12.566 14.165,10.566C14.089,8.575 14.415,6.316 11.665,6.316C8.29,6.316 8.04,10.754 7.79,13.004C7.54,15.254 6.666,38.817 6.416,43.067C6.166,47.317 5.166,87.38 5.166,90.38C5.166,95.88 14.666,103.318 15.916,104.568C22.416,111.068 22.166,114.818 22.166,116.068C22.166,117.318 21.416,134.818 21.166,139.318C20.916,143.818 18.166,196.068 17.916,200.568C17.666,205.068 16.666,249.068 16.666,252.318C16.666,263.818 26.916,263.068 28.762,263.068C40.166,263.068 39.416,253.818 39.416,251.818C39.416,249.818 38.916,230.068 38.666,227.318C38.416,224.568 35.666,167.568 35.666,165.818C35.666,164.068 33.666,116.818 33.666,114.568C33.666,109.817 37.166,106.817 38.416,105.567Z" style="fill:rgb(226,225,226);fill-rule:nonzero;"/>
            </g>
            <g transform="matrix(0.712928,0,0,0.671919,320.452,64.201)">
                <path d="M32.897,15.265C32.897,17.015 32.897,134.473 32.897,135.307C33.564,135.64 35.397,136.474 35.397,139.474C35.397,140.14 35.23,143.474 33.564,143.474C33.147,143.474 33.272,144.453 33.272,144.953C33.272,145.453 33.272,147.547 33.272,147.797C32.897,147.797 32.647,147.797 32.522,147.797C32.522,147.797 32.397,155.766 32.522,158.266C32.647,160.766 33.966,198.266 33.931,202.266C33.897,206.266 35.397,244.266 35.397,246.766C35.397,249.266 36.647,264.266 25.147,264.266C20.718,264.266 12.647,265.766 12.647,248.016C12.647,244.516 13.647,203.516 13.647,199.766C13.647,196.016 14.897,160.766 14.897,158.266C14.897,155.766 15.314,148.433 15.314,147.933C14.814,147.933 14.356,147.933 14.231,147.933C14.231,147.537 14.294,145.143 14.294,145.143C14.294,145.143 14.481,143.903 13.912,143.733C13.537,143.598 12.148,141.86 12.148,139.61C12.231,138.194 12.961,136.235 15.148,135.61C15.148,135.047 15.148,129.86 15.148,129.485C15.148,129.11 13.648,124.516 7.148,123.35C7.148,122.267 7.148,96.476 7.148,93.642C7.148,90.642 7.731,68.809 7.731,67.642C7.898,62.107 10.568,41.604 10.731,39.975C11.064,35.808 14.481,21.569 17.231,16.808C19.231,13.141 22.064,9.808 25.064,8.141C33.064,4.473 32.897,15.265 32.897,15.265Z" style="fill:rgb(226,225,226);fill-rule:nonzero;"/>
            </g>
        </g>
    </g>
</svg>
