<?xml version="1.0" standalone="no"?>
<!DOCTYPE svg PUBLIC "-//W3C//DTD SVG 1.1//EN" "http://www.w3.org/Graphics/SVG/1.1/DTD/svg11.dtd">
<svg width="100%" height="100%" viewBox="0 0 252 397" version="1.1" xmlns="http://www.w3.org/2000/svg" xmlns:xlink="http://www.w3.org/1999/xlink" xml:space="preserve" style="fill-rule:evenodd;clip-rule:evenodd;stroke-linejoin:round;stroke-miterlimit:1.41421;">
    <g transform="matrix(1,0,0,1,-1245,-157)">
        <g transform="matrix(1,0,0,1,681.476,119.054)">
            <g id="Layer3">
                <g>
                    <g transform="matrix(0.840603,0,0,0.840603,123.786,112.42)">
                        <g transform="matrix(1,0,0,1,548.961,-64.4705)">
                            <path d="M108.25,374.75C107,347.333 96.248,319.474 93.75,313.25C86.5,298 73.5,290 71,289.5C71,288.25 71.166,71.333 71.166,69.833C71.166,68.333 73.666,56.666 74.334,53.666C75,50.666 78.666,32.666 79,30.999C81.5,16.999 63.334,15.666 61.666,15.666C61.666,15.666 52.238,15.395 46.549,19.428L57.645,26.078C58.666,25.605 59.8,25.333 60.999,25.333C65.261,25.333 68.734,28.667 68.976,32.869L69,32.883L68.979,32.918C68.981,32.949 68.983,32.98 68.983,33.011C68.991,33.045 68.997,33.078 69.001,33.125C69.001,33.167 68.995,33.202 68.995,33.243C68.997,33.274 69.001,33.303 69.001,33.333C69.001,33.557 68.985,33.778 68.968,33.997C68.876,35.15 68.579,36.041 68.224,36.755C67.937,37.361 67.581,37.929 67.158,38.441C67.156,38.442 67.154,38.444 67.154,38.446C66.713,39.064 66.029,39.59 65.523,39.93C65.476,39.962 65.429,39.992 65.38,40.023C65.163,40.164 64.987,40.268 64.907,40.315C64.893,40.324 64.882,40.328 64.866,40.336C63.72,40.97 62.403,41.334 61,41.334C56.681,41.334 53.169,37.908 53.015,33.626L42.349,27.233C42.33,28.307 42.446,29.469 42.75,30.751C43.25,32.501 47.25,52.251 47.75,54.001C48.25,55.751 52,70 52,71.667C52,73.334 52,286.013 52,289.25C36.5,296 29.75,309.5 28.75,311.25C18.75,327.5 14,368.75 13.75,372C13.5,375.25 11,411.083 11,414.333C11,423.333 35.833,423.501 38.667,423.501C38.667,422.334 38.667,395.834 38.667,394.667C38.667,388.001 44,387.667 45.333,387.667C51,387.667 51.833,392.166 51.833,394.166C51.833,396.166 51.833,421.667 51.833,424C53.333,424 68.833,424 69.833,424C69.833,422.667 69.833,395.5 69.833,393.833C69.833,387.666 76.667,387.5 76.667,387.5C81.333,387.5 83.001,392.25 83.001,393.75C83.001,395.745 83.001,421 83.001,424C110.751,424 111.001,413.666 111.001,413.666C111.333,405.333 108.704,383.711 108.25,374.75Z" style="fill:rgb(219,149,73);fill-rule:nonzero;"/>
                        </g>
                        <g transform="matrix(1,0,0,1,548.961,-64.4705)">
                            <path d="M64.448,40.478C64.448,40.478 64.62,40.47 64.866,40.336C64.882,40.328 64.893,40.324 64.907,40.315C64.987,40.268 65.163,40.164 65.38,40.023C65.427,39.993 65.472,39.964 65.523,39.93C66.029,39.589 66.712,39.064 67.154,38.446C67.154,38.444 67.156,38.442 67.158,38.441C67.465,38.01 67.871,37.467 68.224,36.755C68.579,36.041 68.876,35.15 68.968,33.997C68.986,33.757 68.997,33.506 68.995,33.243C68.995,33.202 69.001,33.167 69.001,33.125C68.997,33.078 68.991,33.045 68.983,33.011C68.979,32.984 68.973,32.961 68.965,32.942L68.979,32.919L69,32.883L68.977,32.869L57.645,26.078L46.549,19.428L25.143,6.598L20.591,14.192L42.349,27.232L53.015,33.625L64.448,40.478Z" style="fill:rgb(191,191,191);fill-rule:nonzero;"/>
                        </g>
                    </g>
                    <g transform="matrix(1,0,0,1,-37.0201,111.428)">
                        <g transform="matrix(1,0,0,1,734.204,-58.5151)">
                            <path d="M80.067,31.442C78.336,19.795 68.296,10.859 56.166,10.859C42.819,10.859 32,21.678 32,35.026C32,43.08 35.943,50.209 42,54.6L42,122.192L80.334,122.192L80.334,31.442L80.067,31.442L80.067,31.442ZM56.666,39.692C53.768,39.692 51.416,37.341 51.416,34.442C51.416,31.543 53.768,29.192 56.666,29.192C59.566,29.192 61.916,31.543 61.916,34.442C61.916,37.341 59.566,39.692 56.666,39.692Z" style="fill:black;fill-rule:nonzero;"/>
                        </g>
                        <g transform="matrix(1,0,0,1,734.204,-58.5151)">
                            <path d="M60.283,30.69L60.346,30.59L25.021,8.651L19.824,17.018L55.149,38.957L55.156,38.946C55.832,39.39 56.609,39.663 57.451,39.664C59.959,39.667 61.996,37.41 62,34.622C62.001,33.025 61.324,31.617 60.283,30.69Z" style="fill:rgb(191,191,191);fill-rule:nonzero;"/>
                        </g>
                        <g transform="matrix(1,0,0,1,734.204,-58.5151)">
                            <path d="M52,122.192L52,130.359L59.064,130.359C38.008,130.604 8.547,130.942 6,130.942C6,134.275 6,145.609 6,151.942C6,158.275 10.334,208.942 11.334,217.276C13.666,236.276 24.334,280.608 26.334,286.942C39.666,327.608 63.334,337.608 67.334,339.942C71.334,342.276 71.334,339.608 71.666,336.276C72,332.942 76,299.276 76.333,295.608C76.666,291.942 78.666,253.61 78.666,247.61C78.666,241.61 79.666,201.276 79.666,196.942C79.666,192.766 80.286,134.569 80.331,130.359L80.334,130.359L80.334,122.192L52,122.192L52,122.192Z" style="fill:rgb(241,240,240);fill-rule:nonzero;"/>
                        </g>
                    </g>
                </g>
            </g>
        </g>
    </g>
</svg>
