<?xml version="1.0" encoding="utf-8"?>
<!-- Generator: Adobe Illustrator 16.0.2, SVG Export Plug-In . SVG Version: 6.00 Build 0)  -->
<!DOCTYPE svg PUBLIC "-//W3C//DTD SVG 1.1//EN" "http://www.w3.org/Graphics/SVG/1.1/DTD/svg11.dtd">
<svg version="1.1" id="Layer_1" xmlns="http://www.w3.org/2000/svg" xmlns:xlink="http://www.w3.org/1999/xlink" x="0px" y="0px"
	 width="117.171px" height="430.303px" viewBox="0 0 117.171 430.303" enable-background="new 0 0 117.171 430.303"
	 xml:space="preserve">
<g>
	<path fill="#DB9549" d="M108.25,374.75c-1.25-27.417-12.002-55.276-14.5-61.5C86.5,298,73.5,290,71,289.5
		c0-1.25,0.166-218.167,0.166-219.667s2.5-13.167,3.168-16.167c0.666-3,4.332-21,4.666-22.667c2.5-14-15.666-15.333-17.334-15.333
		c0,0-9.428-0.271-15.117,3.762l11.096,6.65c1.021-0.473,2.155-0.745,3.354-0.745c4.262,0,7.735,3.334,7.977,7.536L69,32.883
		l-0.021,0.035c0.002,0.031,0.004,0.062,0.004,0.093c0.008,0.034,0.014,0.067,0.018,0.114c0,0.042-0.006,0.077-0.006,0.118
		c0.002,0.031,0.006,0.06,0.006,0.09c0,0.224-0.016,0.445-0.033,0.664c-0.092,1.153-0.389,2.044-0.744,2.758
		c-0.287,0.606-0.643,1.174-1.066,1.686c-0.002,0.001-0.004,0.003-0.004,0.005c-0.441,0.618-1.125,1.144-1.631,1.484
		c-0.047,0.032-0.094,0.062-0.143,0.093c-0.217,0.141-0.393,0.245-0.473,0.292c-0.014,0.009-0.025,0.013-0.041,0.021
		c-1.146,0.634-2.463,0.998-3.866,0.998c-4.319,0-7.831-3.426-7.985-7.708l-10.666-6.393c-0.019,1.074,0.097,2.236,0.401,3.518
		c0.5,1.75,4.5,21.5,5,23.25S52,70,52,71.667s0,214.346,0,217.583c-15.5,6.75-22.25,20.25-23.25,22c-10,16.25-14.75,57.5-15,60.75
		S11,411.083,11,414.333c0,9,24.833,9.168,27.667,9.168c0-1.167,0-27.667,0-28.834c0-6.666,5.333-7,6.666-7
		c5.667,0,6.5,4.499,6.5,6.499s0,27.501,0,29.834c1.5,0,17,0,18,0c0-1.333,0-28.5,0-30.167c0-6.167,6.834-6.333,6.834-6.333
		c4.666,0,6.334,4.75,6.334,6.25c0,1.995,0,27.25,0,30.25c27.75,0,28-10.334,28-10.334
		C111.333,405.333,108.704,383.711,108.25,374.75z"/>
	<path fill="#F5F5F5" d="M65.522,39.931c-0.051,0.034-0.096,0.063-0.143,0.093C65.428,39.993,65.475,39.963,65.522,39.931z"/>
	<path fill="#F5F5F5" d="M53.015,33.625c0.154,4.282,3.666,7.708,7.985,7.708c1.403,0,2.719-0.363,3.866-0.998
		c-0.246,0.133-0.418,0.142-0.418,0.142L53.015,33.625z"/>
	<path fill="#F5F5F5" d="M68.223,36.755c-0.354,0.712-0.76,1.255-1.066,1.686C67.581,37.93,67.936,37.362,68.223,36.755z"/>
	<path fill="#F5F5F5" d="M68.983,33.011c0-0.031-0.002-0.062-0.004-0.093l-0.014,0.023C68.973,32.961,68.979,32.984,68.983,33.011z"
		/>
	<path fill="#F5F5F5" d="M69,33.333c0-0.03-0.004-0.06-0.006-0.09c0.002,0.264-0.01,0.514-0.027,0.754
		C68.985,33.778,69,33.558,69,33.333z"/>
	<path fill="#F5F5F5" d="M61,25.333c-1.199,0-2.333,0.271-3.354,0.745l11.332,6.791C68.735,28.668,65.262,25.333,61,25.333z"/>
	<path fill="#BFBFBF" d="M64.448,40.478c0,0,0.172-0.008,0.418-0.142c0.016-0.008,0.027-0.012,0.041-0.021
		c0.08-0.047,0.256-0.151,0.473-0.292c0.047-0.03,0.092-0.059,0.143-0.093c0.506-0.341,1.189-0.866,1.631-1.484
		c0-0.002,0.002-0.004,0.004-0.005c0.307-0.431,0.713-0.974,1.066-1.686c0.355-0.714,0.652-1.605,0.744-2.758
		c0.018-0.24,0.029-0.491,0.027-0.754c0-0.041,0.006-0.076,0.006-0.118c-0.004-0.047-0.01-0.08-0.018-0.114
		c-0.004-0.027-0.01-0.05-0.018-0.069l0.014-0.023L69,32.883l-0.023-0.014l-11.332-6.791l-11.096-6.65L25.143,6.598l-4.552,7.594
		l21.758,13.04l10.666,6.393L64.448,40.478z"/>
</g>
</svg>
