<?xml version="1.0" encoding="utf-8"?>
<!-- Generator: Adobe Illustrator 16.0.2, SVG Export Plug-In . SVG Version: 6.00 Build 0)  -->
<!DOCTYPE svg PUBLIC "-//W3C//DTD SVG 1.1//EN" "http://www.w3.org/Graphics/SVG/1.1/DTD/svg11.dtd">
<svg version="1.1" id="Layer_1" xmlns="http://www.w3.org/2000/svg" xmlns:xlink="http://www.w3.org/1999/xlink" x="0px" y="0px"
	 width="111.111px" height="454.545px" viewBox="0 0 111.111 454.545" enable-background="new 0 0 111.111 454.545"
	 xml:space="preserve">
<g>
	<path fill="#DB9549" d="M102.74,383c-0.74-28.875-11-48.875-15.75-56.25c-7-11.5-20.5-18.667-20.5-18.667l0.011-216.666
		c0-1.75,0.239-4.167,0.239-5.167s2.25-10,2.75-12.5s4.75-21.75,5-25c1.366-9.87-8.585-12.785-14.49-13.648v7.129
		c2.25,1.416,3.75,3.915,3.75,6.769c0,4.418-3.581,8-8,8s-8-3.582-8-8c0-2.924,1.574-5.475,3.916-6.87v-7.137
		c-3.857,0.6-9.4,2.467-12.176,8.132c-2.407,4.208,0.261,16.417,0.261,16.417s5.664,24.42,6.12,26.208
		c0.469,1.798,0.869,3.625,0.869,5.875s0,213,0,216.5c-31.75,15.75-36,69.5-36.5,74.5s-2.623,44.25-2.623,48.5
		c0,8.5,12.373,10.5,21.123,11.75c5.5,1,23.25,1.5,28.5,1.5c13.25,0.25,33-2,33-2c15.364-1.75,15.364-12.5,15.364-12.5
		C105.604,426.875,102.905,387.504,102.74,383z"/>
	<path fill="#F1F0F0" d="M51.666,51.167V42.13c-2.342,1.396-3.916,3.946-3.916,6.87c0,4.418,3.581,8,8,8s8-3.582,8-8
		c0-2.854-1.5-5.354-3.75-6.769v8.936H51.666z"/>
	<polygon fill="#BFBFBF" points="51.666,51.167 60,51.167 60,42.231 60,35.102 60,6.167 51.666,6.167 51.666,34.993 51.666,42.13 	
		"/>
</g>
</svg>
