<?xml version="1.0" encoding="utf-8"?>
<!-- Generator: Adobe Illustrator 16.0.2, SVG Export Plug-In . SVG Version: 6.00 Build 0)  -->
<!DOCTYPE svg PUBLIC "-//W3C//DTD SVG 1.1//EN" "http://www.w3.org/Graphics/SVG/1.1/DTD/svg11.dtd">
<svg version="1.1" id="Layer_1" xmlns="http://www.w3.org/2000/svg" xmlns:xlink="http://www.w3.org/1999/xlink" x="0px" y="0px"
	 width="163.636px" height="426.263px" viewBox="0 0 163.636 426.263" enable-background="new 0 0 163.636 426.263"
	 xml:space="preserve">
<g>
	<path fill="#C1C1C0" d="M142.606,337.375c-11.5-9-27.079-12.474-31.5-13.75c-2.5-0.75-15.5-3-15.5-3c0-2.25,0-263.792,0-266.792
		c0-6.477-4.06-9.941-7.583-11.625v9.406c1.716,1.267,2.833,3.298,2.833,5.594c0,3.843-3.115,6.958-6.958,6.958
		c-3.844,0-6.958-3.115-6.958-6.958c0-2.259,1.081-4.261,2.749-5.532V41.465c-3.536,1.184-8.416,4.584-8.416,14.365
		c0,2.333-0.666,264.003-0.666,264.003c-4.889,0.894-19,3-26,5.333c-17,5.168-24.664,15.335-24.664,15.335
		C9.94,357,15.856,370.5,19.607,378.5c18.666,37.834,58.333,39.666,64.333,39.666c44,0,63.916-42.041,63.916-42.041
		C158.856,351,149.356,343.5,142.606,337.375z M137.273,362.167c-3.667,1.667-25.334,9.334-51,10.334
		c-3.667,0-30,0.666-55.667-9.334c-2.333-1.333-10.333-3.666-3-8.666c18.667-12.667,52-14,52-14s39.333,0.666,57.667,13.666
		C137.273,354.167,146.606,358.834,137.273,362.167z"/>
	<path fill="#F1F0F0" d="M79.689,58.833v-7.157c-1.668,1.271-2.749,3.273-2.749,5.532c0,3.843,3.114,6.958,6.958,6.958
		c3.843,0,6.958-3.115,6.958-6.958c0-2.296-1.117-4.327-2.833-5.594v7.22H79.689z"/>
	<polygon fill="#BFBFBF" points="79.689,58.833 88.023,58.833 88.023,51.614 88.023,42.208 88.023,13.833 79.689,13.833 
		79.689,41.465 79.689,51.676 	"/>
	<path fill="#C6812D" d="M137.273,354.167c-18.334-13-57.667-13.666-57.667-13.666s-33.333,1.333-52,14
		c-7.333,5,0.667,7.333,3,8.666c25.667,10,52,9.334,55.667,9.334c25.666-1,47.333-8.667,51-10.334
		C146.606,358.834,137.273,354.167,137.273,354.167z M67.939,350.168h30v2h-30V350.168z M113.273,361.834H50.606v-2h62.667V361.834z
		"/>
	<rect x="50.606" y="359.834" fill="#AD6D27" width="62.667" height="2"/>
	<rect x="67.939" y="350.168" fill="#AD6D27" width="30" height="2"/>
</g>
</svg>
