<?xml version="1.0" encoding="utf-8"?>
<!-- Generator: Adobe Illustrator 16.0.2, SVG Export Plug-In . SVG Version: 6.00 Build 0)  -->
<!DOCTYPE svg PUBLIC "-//W3C//DTD SVG 1.1//EN" "http://www.w3.org/Graphics/SVG/1.1/DTD/svg11.dtd">
<svg version="1.1" id="Layer_1" xmlns="http://www.w3.org/2000/svg" xmlns:xlink="http://www.w3.org/1999/xlink" x="0px" y="0px"
	 width="143.435px" height="444.444px" viewBox="0 0 143.435 444.444" enable-background="new 0 0 143.435 444.444"
	 xml:space="preserve">
<g>
	<path fill="#44413F" d="M134.38,354.811c-1.25-13.5-6-35.5-8.75-43.75c-8.5-28.75-35-31.5-35-31.5c0-2,0.5-21.25,0.5-24.5
		s0.25-31.75,0.5-35.25c0.75-19.75,0.75-36.25,0.75-36.25l0.75-40.25c0,0,0-47,0-51.75s0-45.661,0-45.661
		c0-10.815-8.447-14.499-13.958-15.733v5.263v6.213c2.158,1.433,3.583,3.883,3.583,6.667c0,4.418-3.583,8-8,8s-8-3.582-8-8
		c0-2.994,1.648-5.6,4.083-6.971v-6.652v-4.864C65.36,30.618,55.88,33.746,55.88,45.9c0,1.089,0,6.661,0,10.411s0,28.25,0,33
		s0.5,38.5,0.5,41.25s0.75,48,1,51.5s1,38.75,1,44s0,49.75,0,52.75c-24.75,4.25-33.75,25.25-35.5,31.5c-5.874,17.75-8,32-8,32
		s-2.75,12.75-2.75,40c0,3.5,0,38.25,0,43c0,12.042,24.859,11.547,24.858,11.547c35.208,0.174,38.733,0.439,51.591,0.504
		c12.173-0.438,32.76-0.968,35.76-1.468c9-2,11.541-6.833,11.541-9.833s0-39.25,0-43.25S134.88,359.311,134.38,354.811z
		 M40.63,412.061c0,2.25-0.25,11-7.25,11c-1.5,0-6-1.75-6-10c0,0,0-63.25,0-65.5c0-11.25,7.5-10.75,7.5-10.75
		c1.25,0,5.75,0.5,5.75,9.25C40.63,349.061,40.63,409.811,40.63,412.061z M67.63,412.061c0,2.25-0.25,11-7.25,11c-1.5,0-6-1.75-6-10
		c0,0,0-63.25,0-65.5c0-11.25,7.5-10.75,7.5-10.75c1.25,0,5.75,0.5,5.75,9.25C67.63,349.061,67.63,409.811,67.63,412.061z
		 M94.654,412.061c0,2.25-0.25,11-7.25,11c-1.5,0-6-1.75-6-10c0,0,0-63.25,0-65.5c0-11.25,7.5-10.75,7.5-10.75
		c1.25,0,5.75,0.5,5.75,9.25C94.654,349.061,94.654,409.811,94.654,412.061z M120.815,412.061c0,2.25-0.25,11-7.25,11
		c-1.5,0-6-1.75-6-10c0,0,0-63.25,0-65.5c0-11.25,7.5-10.75,7.5-10.75c1.25,0,5.75,0.5,5.75,9.25
		C120.815,349.061,120.815,409.811,120.815,412.061z"/>
	<path fill="#F14336" d="M34.88,336.811c0,0-7.5-0.5-7.5,10.75c0,2.25,0,65.5,0,65.5c0,8.25,4.5,10,6,10c7,0,7.25-8.75,7.25-11
		s0-63,0-66C40.63,337.311,36.13,336.811,34.88,336.811z"/>
	<path fill="#F14336" d="M61.88,336.811c0,0-7.5-0.5-7.5,10.75c0,2.25,0,65.5,0,65.5c0,8.25,4.5,10,6,10c7,0,7.25-8.75,7.25-11
		s0-63,0-66C67.63,337.311,63.13,336.811,61.88,336.811z"/>
	<path fill="#F14336" d="M88.904,336.811c0,0-7.5-0.5-7.5,10.75c0,2.25,0,65.5,0,65.5c0,8.25,4.5,10,6,10c7,0,7.25-8.75,7.25-11
		s0-63,0-66C94.654,337.311,90.154,336.811,88.904,336.811z"/>
	<path fill="#F14336" d="M115.065,336.811c0,0-7.5-0.5-7.5,10.75c0,2.25,0,65.5,0,65.5c0,8.25,4.5,10,6,10c7,0,7.25-8.75,7.25-11
		s0-63,0-66C120.815,337.311,116.315,336.811,115.065,336.811z"/>
	<path fill="#FFFFFF" d="M79.172,52.056h-8.334v-7.157v-3.559c-2.435,1.372-4.083,3.977-4.083,6.971c0,4.418,3.583,8,8,8
		s8-3.582,8-8c0-2.785-1.425-5.234-3.583-6.667v3.193V52.056z"/>
	<polygon fill="#BFBFBF" points="70.838,41.339 70.838,44.898 70.838,52.056 79.172,52.056 79.172,44.836 79.172,41.643 
		79.172,35.43 79.172,30.167 79.172,7.056 70.838,7.056 70.838,29.823 70.838,34.687 	"/>
</g>
</svg>
