<?xml version="1.0" encoding="utf-8"?>
<!-- Generator: Adobe Illustrator 16.0.2, SVG Export Plug-In . SVG Version: 6.00 Build 0)  -->
<!DOCTYPE svg PUBLIC "-//W3C//DTD SVG 1.1//EN" "http://www.w3.org/Graphics/SVG/1.1/DTD/svg11.dtd">
<svg version="1.1" id="Layer_1" xmlns="http://www.w3.org/2000/svg" xmlns:xlink="http://www.w3.org/1999/xlink" x="0px" y="0px"
	 width="42.424px" height="268.687px" viewBox="0 0 42.424 268.687" enable-background="new 0 0 42.424 268.687"
	 xml:space="preserve">
<path fill="#E2E1E2" d="M32.897,15.265c0,1.75,0,119.208,0,120.042c0.667,0.333,2.5,1.167,2.5,4.167c0,0.666-0.167,4-1.833,4
	c-0.417,0-0.292,0.979-0.292,1.479s0,2.594,0,2.844c-0.375,0-0.625,0-0.75,0c0,0-0.125,7.969,0,10.469s1.444,40,1.409,44
	c-0.034,4,1.466,42,1.466,44.5s1.25,17.5-10.25,17.5c-4.429,0-12.5,1.5-12.5-16.25c0-3.5,1-44.5,1-48.25s1.25-39,1.25-41.5
	s0.417-9.833,0.417-10.333c-0.5,0-0.958,0-1.083,0c0-0.396,0.063-2.79,0.063-2.79s0.187-1.24-0.382-1.41
	c-0.375-0.135-1.764-1.873-1.764-4.123c0.083-1.416,0.813-3.375,3-4c0-0.563,0-5.75,0-6.125s-1.5-4.969-8-6.135
	c0-1.083,0-26.874,0-29.708c0-3,0.583-24.833,0.583-26c0.167-5.535,2.837-26.038,3-27.667c0.333-4.167,3.75-18.406,6.5-23.167
	c2-3.667,4.833-7,7.833-8.667C33.064,4.473,32.897,15.265,32.897,15.265z"/>
</svg>
