<?xml version="1.0" encoding="utf-8"?>
<!-- Generator: Adobe Illustrator 16.0.2, SVG Export Plug-In . SVG Version: 6.00 Build 0)  -->
<!DOCTYPE svg PUBLIC "-//W3C//DTD SVG 1.1//EN" "http://www.w3.org/Graphics/SVG/1.1/DTD/svg11.dtd">
<svg version="1.1" id="Layer_1" xmlns="http://www.w3.org/2000/svg" xmlns:xlink="http://www.w3.org/1999/xlink" x="0px" y="0px"
	 width="86.869px" height="347.475px" viewBox="0 0 86.869 347.475" enable-background="new 0 0 86.869 347.475"
	 xml:space="preserve">
<g>
	<path d="M80.067,31.442c-1.731-11.647-11.771-20.583-23.901-20.583C42.819,10.859,32,21.678,32,35.026
		c0,8.054,3.943,15.183,10,19.574v67.592h38.334v-90.75H80.067z M56.666,39.692c-2.898,0-5.25-2.351-5.25-5.25s2.352-5.25,5.25-5.25
		c2.9,0,5.25,2.351,5.25,5.25S59.566,39.692,56.666,39.692z"/>
	<circle fill="#FFFFFF" cx="56.666" cy="34.442" r="5.25"/>
</g>
<path fill="#BFBFBF" d="M60.283,30.69l0.063-0.1L25.021,8.651l-5.197,8.367l35.325,21.939l0.007-0.011
	c0.676,0.444,1.453,0.717,2.295,0.718c2.508,0.003,4.545-2.254,4.549-5.042C62.001,33.025,61.324,31.617,60.283,30.69z"/>
<path fill="#F1F0F0" d="M52,122.192v8.167h7.064C38.008,130.604,8.547,130.942,6,130.942c0,3.333,0,14.667,0,21
	s4.334,57,5.334,65.334c2.332,19,13,63.332,15,69.666c13.332,40.666,37,50.666,41,53s4-0.334,4.332-3.666
	c0.334-3.334,4.334-37,4.667-40.668c0.333-3.666,2.333-41.998,2.333-47.998s1-46.334,1-50.668c0-4.176,0.62-62.373,0.665-66.583
	h0.003v-8.167H52z"/>
</svg>
