<?xml version="1.0" standalone="no"?>
<!DOCTYPE svg PUBLIC "-//W3C//DTD SVG 1.1//EN" "http://www.w3.org/Graphics/SVG/1.1/DTD/svg11.dtd">
<svg width="100%" height="100%" viewBox="0 0 282 184" version="1.1" xmlns="http://www.w3.org/2000/svg" xmlns:xlink="http://www.w3.org/1999/xlink" xml:space="preserve" style="fill-rule:evenodd;clip-rule:evenodd;stroke-linejoin:round;stroke-miterlimit:1.41421;">
    <g transform="matrix(1,0,0,1,-93,-393)">
        <g id="Layer4">
            <g transform="matrix(-1.60812e-16,-1,1,-1.60812e-16,98.5199,540.957)">
                <path d="M38.416,105.567C39.666,104.317 51.166,94.567 51.166,90.567C51.166,88.567 50.666,76.567 50.416,73.817C50.166,71.067 48.166,20.567 47.916,17.817C47.916,17.817 47.728,12.004 47.728,10.754C47.728,7.754 46.54,6.316 44.165,6.316C41.415,6.316 40.915,8.816 40.915,10.566C40.915,12.316 40.915,65.816 40.915,66.816C40.915,69.066 39.415,69.566 38.415,69.566C37.415,69.566 35.665,68.566 35.665,66.816C35.665,65.066 35.665,12.066 35.665,10.816C35.665,7.316 33.915,6.316 32.915,6.316C30.415,6.316 29.665,9.066 29.665,11.066C29.665,13.066 29.665,65.566 29.665,66.566C29.665,69.066 28.165,69.816 27.165,69.816C25.415,69.816 24.665,68.066 24.665,66.566C24.665,65.066 24.665,11.816 24.665,10.316C24.665,7.316 22.915,6.316 21.915,6.316C19.415,6.316 19.165,9.566 19.165,10.816C19.165,12.066 18.665,64.816 18.665,66.316C18.665,68.816 17.165,69.566 16.165,69.566C15.165,69.566 14.165,68.816 14.165,66.066C14.165,64.316 14.165,12.566 14.165,10.566C14.089,8.575 14.415,6.316 11.665,6.316C8.29,6.316 8.04,10.754 7.79,13.004C7.54,15.254 6.666,38.817 6.416,43.067C6.166,47.317 5.166,87.38 5.166,90.38C5.166,95.88 14.666,103.318 15.916,104.568C22.416,111.068 22.166,114.818 22.166,116.068C22.166,117.318 21.416,134.818 21.166,139.318C20.916,143.818 18.166,196.068 17.916,200.568C17.666,205.068 16.666,249.068 16.666,252.318C16.666,263.818 26.916,263.068 28.762,263.068C40.166,263.068 39.416,253.818 39.416,251.818C39.416,249.818 38.916,230.068 38.666,227.318C38.416,224.568 35.666,167.568 35.666,165.818C35.666,164.068 33.666,116.818 33.666,114.568C33.666,109.817 37.166,106.817 38.416,105.567Z" style="fill:rgb(226,225,226);fill-rule:nonzero;"/>
            </g>
            <g transform="matrix(1,0,0,1,-53.2224,16.5207)">
                <text x="207.239px" y="446.609px" style="font-family:Roboto Slab;font-size:54.167px;fill:rgb(35,31,32);">Voltar</text>
            </g>
        </g>
    </g>
</svg>
