<?xml version="1.0" encoding="utf-8"?>
<!-- Generator: Adobe Illustrator 16.0.2, SVG Export Plug-In . SVG Version: 6.00 Build 0)  -->
<!DOCTYPE svg PUBLIC "-//W3C//DTD SVG 1.1//EN" "http://www.w3.org/Graphics/SVG/1.1/DTD/svg11.dtd">
<svg version="1.1" id="Layer_1" xmlns="http://www.w3.org/2000/svg" xmlns:xlink="http://www.w3.org/1999/xlink" x="0px" y="0px"
	 width="54.545px" height="266.667px" viewBox="0 0 54.545 266.667" enable-background="new 0 0 54.545 266.667"
	 xml:space="preserve">
<path fill="#E2E1E2" d="M38.416,105.567c1.25-1.25,12.75-11,12.75-15c0-2-0.5-14-0.75-16.75s-2.25-53.25-2.5-56
	c0,0-0.188-5.813-0.188-7.063c0-3-1.188-4.438-3.563-4.438c-2.75,0-3.25,2.5-3.25,4.25s0,55.25,0,56.25c0,2.25-1.5,2.75-2.5,2.75
	s-2.75-1-2.75-2.75s0-54.75,0-56c0-3.5-1.75-4.5-2.75-4.5c-2.5,0-3.25,2.75-3.25,4.75s0,54.5,0,55.5c0,2.5-1.5,3.25-2.5,3.25
	c-1.75,0-2.5-1.75-2.5-3.25s0-54.75,0-56.25c0-3-1.75-4-2.75-4c-2.5,0-2.75,3.25-2.75,4.5s-0.5,54-0.5,55.5c0,2.5-1.5,3.25-2.5,3.25
	s-2-0.75-2-3.5c0-1.75,0-53.5,0-55.5c-0.076-1.991,0.25-4.25-2.5-4.25c-3.375,0-3.625,4.438-3.875,6.688S6.666,38.817,6.416,43.067
	s-1.25,44.313-1.25,47.313c0,5.5,9.5,12.938,10.75,14.188c6.5,6.5,6.25,10.25,6.25,11.5s-0.75,18.75-1,23.25s-3,56.75-3.25,61.25
	s-1.25,48.5-1.25,51.75c0,11.5,10.25,10.75,12.096,10.75c11.404,0,10.654-9.25,10.654-11.25s-0.5-21.75-0.75-24.5s-3-59.75-3-61.5
	s-2-49-2-51.25C33.666,109.817,37.166,106.817,38.416,105.567z"/>
</svg>
