<?xml version="1.0" standalone="no"?><!DOCTYPE svg PUBLIC "-//W3C//DTD SVG 1.1//EN" "http://www.w3.org/Graphics/SVG/1.1/DTD/svg11.dtd"><svg width="100%" height="100%" viewBox="0 0 1280 800" version="1.1" xmlns="http://www.w3.org/2000/svg" xmlns:xlink="http://www.w3.org/1999/xlink" xml:space="preserve" style="fill-rule:evenodd;clip-rule:evenodd;stroke-linejoin:round;stroke-miterlimit:1.41421;"><g id="Layer1"><g><g><path d="M518.992,248.403c0,-36.918 -29.973,-66.89 -66.891,-66.89l-133.782,0c-36.918,0 -66.89,29.972 -66.89,66.89l0,303.194c0,36.918 29.972,66.89 66.89,66.89l133.782,0c36.918,0 66.891,-29.972 66.891,-66.89l0,-303.194Z" style="fill:#0dcaf2;"/><path d="M491.455,266.475c0,-0.814 -0.661,-1.475 -1.474,-1.475l-2.949,0c-0.814,0 -1.474,0.661 -1.474,1.475l0,40.907c0,0.814 0.66,1.475 1.474,1.475l2.949,0c0.813,0 1.474,-0.661 1.474,-1.475l0,-40.907Z" style="fill:#fff;"/><path d="M491.455,378.207c0,0 0,0 0,0c0,-0.814 -0.661,-1.474 -1.474,-1.474l-2.949,0c-0.814,0 -1.474,0.66 -1.474,1.474l0,68.552c0,0.813 0.66,1.474 1.474,1.474l2.949,0c0.813,0 1.474,-0.661 1.474,-1.474c0,0 0,-68.526 0,-68.552Z" style="fill:#fff;"/><rect x="251.429" y="337.379" width="267.563" height="6.857" style="fill:#fff;"/><g><path d="M638.093,375.944c0,3.456 0.288,8.208 0.288,14.4l0,1.44c-13.392,4.032 -26.496,11.808 -26.496,26.496c0,9.648 6.336,16.992 16.128,16.992c16.848,0 20.304,-18.864 21.024,-34.992c2.016,-0.144 14.38,-0.288 16.54,-0.288c5.04,-0.144 8.809,-7.702 3.311,-11.673c-1.875,-1.355 -16.827,0.585 -19.563,1.017c0,-8.784 -0.144,-15.84 -0.144,-22.608c0,-7.2 0.144,-13.968 0.864,-21.744c0,-3.168 -4.896,-5.472 -7.488,-5.472c-2.448,0 -4.608,0.144 -4.608,2.88c0,1.008 0.288,3.312 0.288,4.752c0,11.808 -7.488,31.68 -22.176,31.68c-9.216,0 -16.272,-12.96 -16.272,-33.696c0,-25.2 15.12,-53.136 33.12,-53.136c6.624,0 8.784,4.752 8.784,8.064c0,9.216 -10.512,17.712 -17.856,17.712c-4.176,0 -4.464,-1.44 -5.472,-1.44c-1.008,0 -1.584,3.168 -1.584,5.184c0,4.752 2.88,6.912 6.336,6.912c12.528,0 29.952,-13.392 29.952,-29.088c0,-11.088 -7.92,-17.856 -18.288,-17.856c-28.656,0 -46.944,35.136 -46.944,63.792c0,26.928 10.08,44.784 27.936,44.784c8.784,0 16.272,-5.184 22.32,-14.112ZM628.301,424.184c-2.88,0 -5.184,-1.872 -5.184,-6.192c0,-7.2 5.328,-12.528 14.832,-15.552c-0.72,11.52 -3.168,21.744 -9.648,21.744Z" style="fill:#000;fill-rule:nonzero;"/><path d="M694.973,342.392c0,-8.64 -4.896,-14.544 -12.96,-14.544c-11.088,0 -22.032,13.68 -22.032,31.968c0,18 12.384,28.512 25.488,28.512c21.168,0 26.928,-17.424 27.936,-26.208c0.576,-5.04 -7.488,-7.92 -8.784,-1.44c-1.728,8.784 -6.336,18.144 -17.568,18.144c-7.488,0 -11.376,-4.032 -13.392,-8.928c13.968,-4.176 21.312,-16.848 21.312,-27.504ZM671.789,359.384c-0.288,-6.048 1.872,-21.888 8.928,-21.888c1.872,0 3.024,1.872 3.024,5.04c0,8.64 -4.608,16.128 -11.808,19.44c0,-0.864 -0.144,-1.728 -0.144,-2.592Z" style="fill:#000;fill-rule:nonzero;"/><path d="M715.565,300.632c0,-2.304 0.576,-5.76 2.16,-5.76c2.304,0 3.888,4.32 3.888,13.824c0,7.92 -3.024,26.928 -6.048,32.976l0,-41.04ZM736.013,363.416c-1.296,6.336 -6.192,15.408 -12.816,15.408c-5.328,0 -7.632,-4.176 -7.632,-9.936l0,-8.352c1.872,-1.728 14.976,-30.816 14.976,-51.984c0,-8.064 -0.144,-23.184 -12.816,-23.184c-7.2,0 -13.104,7.632 -13.104,18.432l0,65.52c0,11.376 5.904,19.008 16.992,19.008c13.104,0 20.16,-14.544 22.752,-22.32c1.152,-4.608 -6.624,-11.088 -8.352,-2.592Z" style="fill:#000;fill-rule:nonzero;"/><path d="M777.053,378.824c-3.456,0 -4.896,-3.456 -4.896,-6.624l0,-23.76c0,-3.456 -3.024,-6.336 -7.776,-6.336c-2.016,0 -3.744,1.008 -3.744,2.448c0,1.008 0.576,1.872 0.576,4.608l0,22.176c-1.584,4.032 -4.176,7.488 -8.064,7.488c-5.04,0 -8.208,-4.32 -8.208,-11.808c0,-20.736 12.816,-30.096 23.76,-30.096c1.44,0 2.88,0.288 4.176,0.288c1.44,0 1.872,-0.864 1.872,-3.312c0,-3.744 -2.736,-6.048 -6.624,-6.048c-17.568,0 -34.272,14.688 -34.272,38.736c0,12.24 5.904,21.744 17.136,21.744c5.472,0 9.504,-2.592 12.384,-5.904c2.16,3.456 6.048,5.904 11.088,5.904c12.384,0 18.144,-12.96 20.592,-22.464c0.144,-0.576 0.144,-0.864 0.144,-1.008c0,-2.736 -2.736,-5.904 -5.04,-5.904c-1.44,0 -2.88,1.296 -3.456,4.32c-1.296,6.336 -3.888,15.552 -9.648,15.552Z" style="fill:#000;fill-rule:nonzero;"/><path d="M803.405,388.328c5.472,0 9.648,-2.448 12.816,-5.616c2.16,3.312 6.048,5.616 10.944,5.616c12.384,0 18.144,-12.96 20.592,-22.464c0.144,-0.576 0.144,-0.864 0.144,-1.008c0,-2.736 -2.736,-5.904 -5.04,-5.904c-1.44,0 -2.88,1.296 -3.456,4.32c-1.296,6.336 -3.888,15.552 -9.648,15.552c-3.456,0 -4.896,-3.456 -4.896,-6.624l0,-77.328c0,-3.456 -3.024,-6.336 -7.776,-6.336c-2.016,0 -4.608,0.576 -4.608,1.584c0,1.008 1.44,1.296 1.44,5.472l0,32.544c-15.696,2.16 -29.088,14.976 -29.088,37.008c0,15.12 7.344,23.184 18.576,23.184ZM805.565,378.824c-5.04,0 -9.648,-4.32 -9.648,-14.688c0,-18 8.64,-24.768 18,-26.496l0,35.568c-1.872,3.168 -4.608,5.616 -8.352,5.616Z" style="fill:#000;fill-rule:nonzero;"/><path d="M873.101,342.392c0,-8.64 -4.896,-14.544 -12.96,-14.544c-11.088,0 -22.032,13.68 -22.032,31.968c0,18 12.384,28.512 25.488,28.512c21.168,0 26.928,-17.424 27.936,-26.208c0.576,-5.04 -7.488,-7.92 -8.784,-1.44c-1.728,8.784 -6.336,18.144 -17.568,18.144c-7.488,0 -11.376,-4.032 -13.392,-8.928c13.968,-4.176 21.312,-16.848 21.312,-27.504ZM849.917,359.384c-0.288,-6.048 1.872,-21.888 8.928,-21.888c1.872,0 3.024,1.872 3.024,5.04c0,8.64 -4.608,16.128 -11.808,19.44c0,-0.864 -0.144,-1.728 -0.144,-2.592Z" style="fill:#000;fill-rule:nonzero;"/><path d="M890.381,315.032c5.04,0 8.784,-4.032 8.784,-8.784c0,-5.04 -3.744,-8.784 -8.784,-8.784c-4.752,0 -8.64,3.744 -8.64,8.784c0,4.752 3.888,8.784 8.64,8.784ZM893.693,335.624c0,-3.456 -3.024,-6.336 -7.776,-6.336c-2.016,0 -3.744,1.008 -3.744,2.448c0,1.008 0.576,1.872 0.576,4.608l0,38.448c0,7.344 4.464,13.536 12.096,13.536c12.384,0 18,-12.96 20.592,-22.464c1.152,-4.608 -6.624,-11.376 -8.352,-2.592c-1.296,6.336 -3.888,15.552 -9.648,15.552c-3.744,0 -3.744,-5.328 -3.744,-6.624l0,-36.576Z" style="fill:#000;fill-rule:nonzero;"/><path d="M939.053,388.328c12.384,0 18,-12.96 20.592,-22.464c0,-0.288 0.144,-0.576 0.144,-1.008c0,-2.736 -2.736,-5.904 -5.04,-5.904c-1.44,0 -2.88,1.296 -3.456,4.32c-1.296,6.336 -3.744,15.552 -10.368,15.552c-3.888,0 -5.76,-3.744 -5.76,-7.776c0,-14.4 6.48,-31.392 6.48,-33.12c0.576,-3.312 -5.184,-8.064 -6.912,-8.064l-7.488,0c-1.44,0 -2.88,0 -7.632,-0.576c-1.584,-5.904 -5.616,-7.632 -9.072,-7.632c-3.744,0 -7.2,2.592 -7.2,6.624c0,4.176 2.592,7.2 6.192,9.216c-0.144,7.344 -0.72,19.296 -2.304,25.056c-1.296,4.896 6.192,10.08 8.064,4.032c2.592,-8.352 3.456,-20.88 3.6,-26.496l12.528,0c-4.608,12.384 -7.2,22.608 -7.2,31.824c0,12.672 8.064,16.416 14.832,16.416Z" style="fill:#000;fill-rule:nonzero;"/><path d="M992.621,378.824c-3.456,0 -4.896,-3.456 -4.896,-6.624l0,-23.76c0,-3.456 -3.024,-6.336 -7.776,-6.336c-2.016,0 -3.744,1.008 -3.744,2.448c0,1.008 0.576,1.872 0.576,4.608l0,22.176c-1.584,4.032 -4.176,7.488 -8.064,7.488c-5.04,0 -8.208,-4.32 -8.208,-11.808c0,-20.736 12.816,-30.096 23.76,-30.096c1.44,0 2.88,0.288 4.176,0.288c1.44,0 1.872,-0.864 1.872,-3.312c0,-3.744 -2.736,-6.048 -6.624,-6.048c-17.568,0 -34.272,14.688 -34.272,38.736c0,12.24 5.904,21.744 17.136,21.744c5.472,0 9.504,-2.592 12.384,-5.904c2.16,3.456 6.048,5.904 11.088,5.904c12.384,0 18.144,-12.96 20.592,-22.464c0.144,-0.576 0.144,-0.864 0.144,-1.008c0,-2.736 -2.736,-5.904 -5.04,-5.904c-1.44,0 -2.88,1.296 -3.456,4.32c-1.296,6.336 -3.888,15.552 -9.648,15.552Z" style="fill:#000;fill-rule:nonzero;"/></g><g><path d="M651.017,517.628c5.472,0 9.648,-2.448 12.816,-5.616c2.16,3.312 6.048,5.616 10.944,5.616c12.384,0 18.144,-12.96 20.592,-22.464c0.144,-0.576 0.144,-0.864 0.144,-1.008c0,-2.736 -2.736,-5.904 -5.04,-5.904c-1.44,0 -2.88,1.296 -3.456,4.32c-1.296,6.336 -3.888,15.552 -9.648,15.552c-3.456,0 -4.896,-3.456 -4.896,-6.624l1.713,-107.304c0,-3.456 -3.024,-6.336 -7.776,-6.336c-2.016,0 -4.608,0.576 -4.608,1.584c0,1.008 1.44,1.296 1.44,5.472l-1.713,62.52c-15.696,2.16 -29.088,14.976 -29.088,37.008c0,15.12 7.344,23.184 18.576,23.184ZM653.177,508.124c-5.04,0 -9.648,-4.32 -9.648,-14.688c0,-18 8.64,-24.768 18,-26.496l0,35.568c-1.872,3.168 -4.608,5.616 -8.352,5.616Z" style="fill:#000;fill-rule:nonzero;"/><path d="M740.297,489.836c-0.864,5.616 -4.176,10.368 -10.368,10.368c-1.008,0 -1.872,0 -2.88,-0.288c1.44,-4.896 2.016,-10.224 2.016,-15.552c0,-13.968 -5.472,-24.192 -12.24,-24.192c-7.776,0 -11.664,7.776 -11.664,16.848c0,10.368 3.6,19.872 10.368,25.632c-1.872,3.312 -4.464,5.472 -8.496,5.472c-5.616,0 -10.368,-6.048 -10.368,-18.144c0,-14.256 4.32,-19.584 6.624,-23.04c3.744,-2.448 0.864,-10.08 -2.88,-10.08c-3.168,0 -14.688,12.816 -14.688,33.984c0,14.4 6.48,26.784 21.024,26.784c8.208,0 13.68,-4.176 17.28,-10.368c2.16,0.72 4.464,1.008 7.056,1.008c9.792,0 15.696,-6.48 17.424,-14.256c1.872,-8.064 -7.632,-7.488 -8.208,-4.176ZM712.793,476.444c0,-4.464 0.864,-6.768 2.448,-6.768c3.024,0 3.456,7.2 3.456,16.992c0,2.16 -0.144,4.32 -0.432,6.624c-3.312,-4.32 -5.472,-10.368 -5.472,-16.848Z" style="fill:#000;fill-rule:nonzero;"/><path d="M788.105,517.628c5.472,0 9.648,-2.448 12.816,-5.616c2.16,3.312 6.048,5.616 10.944,5.616c12.384,0 18.144,-12.96 20.592,-22.464c0.144,-0.576 0.144,-0.864 0.144,-1.008c0,-2.736 -2.736,-5.904 -5.04,-5.904c-1.44,0 -2.88,1.296 -3.456,4.32c-1.296,6.336 -3.888,15.552 -9.648,15.552c-3.456,0 -4.896,-3.456 -4.896,-6.624l0,-77.328c0,-3.456 -3.024,-6.336 -7.776,-6.336c-2.016,0 -4.608,0.576 -4.608,1.584c0,1.008 1.44,1.296 1.44,5.472l0,32.544c-15.696,2.16 -29.088,14.976 -29.088,37.008c0,15.12 7.344,23.184 18.576,23.184ZM790.265,508.124c-5.04,0 -9.648,-4.32 -9.648,-14.688c0,-18 8.64,-24.768 18,-26.496l0,35.568c-1.872,3.168 -4.608,5.616 -8.352,5.616Z" style="fill:#000;fill-rule:nonzero;"/><path d="M832.313,444.332c5.04,0 8.784,-4.032 8.784,-8.784c0,-5.04 -3.744,-8.784 -8.784,-8.784c-4.752,0 -8.64,3.744 -8.64,8.784c0,4.752 3.888,8.784 8.64,8.784ZM835.625,464.924c0,-3.456 -3.024,-6.336 -7.776,-6.336c-2.016,0 -3.744,1.008 -3.744,2.448c0,1.008 0.576,1.872 0.576,4.608l0,38.448c0,7.344 4.464,13.536 12.096,13.536c12.384,0 18,-12.96 20.592,-22.464c1.152,-4.608 -6.624,-11.376 -8.352,-2.592c-1.296,6.336 -3.888,15.552 -9.648,15.552c-3.744,0 -3.744,-5.328 -3.744,-6.624l0,-36.576Z" style="fill:#000;fill-rule:nonzero;"/><path d="M890.345,508.124c-3.456,0 -4.896,-3.456 -4.896,-6.624l0,-23.76c0,-3.456 -3.024,-6.336 -7.776,-6.336c-2.016,0 -3.744,1.008 -3.744,2.448c0,1.008 0.576,1.872 0.576,4.608l0,22.176c-1.584,4.032 -4.176,7.488 -8.064,7.488c-5.04,0 -8.208,-4.32 -8.208,-11.808c0,-20.736 12.816,-30.096 23.76,-30.096c1.44,0 2.88,0.288 4.176,0.288c1.44,0 1.872,-0.864 1.872,-3.312c0,-3.744 -2.736,-6.048 -6.624,-6.048c-17.568,0 -34.272,14.688 -34.272,38.736c0,12.24 5.904,21.744 17.136,21.744c5.472,0 9.504,-2.592 12.384,-5.904c2.16,3.456 6.048,5.904 11.088,5.904c12.384,0 18.144,-12.96 20.592,-22.464c0.144,-0.576 0.144,-0.864 0.144,-1.008c0,-2.736 -2.736,-5.904 -5.04,-5.904c-1.44,0 -2.88,1.296 -3.456,4.32c-1.296,6.336 -3.888,15.552 -9.648,15.552Z" style="fill:#000;fill-rule:nonzero;"/><path d="M952.697,504.236c10.368,-12.528 27.216,-36.72 27.216,-61.488c0,-14.544 -7.2,-29.952 -23.616,-29.952c-12.24,0 -25.056,9.216 -25.056,29.52c0,10.512 4.896,23.76 12.096,23.76c3.744,0 6.768,-3.888 7.056,-6.336c0.144,-0.864 -0.144,-1.296 -0.432,-1.296c-0.432,0 -0.72,0.72 -1.44,0.72c-2.16,0 -6.192,-7.344 -6.192,-16.848c0,-13.824 7.056,-18.864 13.68,-18.864c4.32,0 12.672,3.456 12.672,18.864c0,31.536 -31.248,62.928 -31.536,63.216c-1.152,1.008 -1.728,2.592 -1.728,4.176c0,3.168 2.592,5.328 5.328,5.328l32.4,0c3.888,0 5.616,-4.176 5.616,-8.64c0,-1.872 -0.288,-4.176 -1.584,-4.176c-1.296,0 -1.296,2.016 -3.6,2.016l-20.88,0Z" style="fill:#000;fill-rule:nonzero;"/><path d="M1015.91,517.628c11.952,0 26.208,-8.928 26.208,-52.416c0,-22.608 -2.736,-52.416 -26.208,-52.416c-26.352,0 -26.352,39.312 -26.352,52.416c0,34.704 8.784,52.416 26.352,52.416ZM1015.91,423.452c3.6,0 14.976,0.288 14.976,41.76c0,25.92 -5.472,41.76 -14.976,41.76c-13.392,0 -15.12,-26.208 -15.12,-41.76c0,-27.648 4.896,-41.76 15.12,-41.76Z" style="fill:#000;fill-rule:nonzero;"/></g><text x="345.226px" y="300.752px" style="font-family:Grand Hotel;font-size:96px;fill:#fff;">20</text></g></g></g></svg>